<?xml version="1.0" encoding="utf-8"?>
<!-- Generator: Adobe Illustrator 12.0.0, SVG Export Plug-In . SVG Version: 6.00 Build 51448)  -->
<!DOCTYPE svg PUBLIC "-//W3C//DTD SVG 1.1//EN" "http://www.w3.org/Graphics/SVG/1.1/DTD/svg11.dtd" [
	<!ENTITY ns_svg "http://www.w3.org/2000/svg">
	<!ENTITY ns_xlink "http://www.w3.org/1999/xlink">
]>
<svg  version="1.1" id="レイヤー_1" xmlns="&ns_svg;" xmlns:xlink="&ns_xlink;" width="487.049" height="136.667"
	 viewBox="0 0 487.049 136.667" overflow="visible" enable-background="new 0 0 487.049 136.667" xml:space="preserve">
<path fill="none" stroke="#040000" d="M0.654,75.337c-2.052-16.574,16.802-32.162,31.628-33.485
	c6.375,0.773,4.048,8.866,1.046,15.76c-3.571,8.201-11.29,16.328-16.457,23.545c7.254-8.728,16.149-16.823,23.773-25.233
	c2.679-2.954,11.473-14.121,16.891-10.947c10.863,6.363-7.168,25.718-10.054,30.777c0.666-8.564,25.526-35.277,34.507-27.229
	c8.742,7.837-4.43,17.75-4.044,25.495c10.495,3.768,20.127-3.437,27.227-10.377c4.668-4.564,7.061-10.856,11.678-15.039
	c-0.932,7.926-17.523,24.64-7.795,29.708c10.378,5.407,42.777-16.785,40.629-28.645c-13.808,3.094-11.612,33.697-13.221,43.602
	c-2.396,14.76-7.631,46.601-28.305,42.543c-19.373-3.803-1.286-31.535,8.577-37.088c11.615-6.539,23.159-11.046,33.526-19.953"/>
<path fill="none" stroke="#040000" d="M232.947,59.227c-7.607-2.649-28.818-9.939-35.903-1.727
	c-5.575,6.463-2.021,28.908,6.723,31.67c16.396,5.18,30.091-20.868,31.902-32.678c2.592-16.906-7.484-39.97-2.223-54.528
	c4.285,25.571-4.67,57.068,3.042,81.554c8.618,27.363,38.731-18.53,26.576-31.685c14.978,7.711,12.791,6.515,15.686,13.329
	c3.32,7.82-5.397,10.813-4.848,16.678c1.739,18.591,28.529-14.38,32.323-21.298c-0.256,10.618-15.232,30.715-0.771,35.211
	c11.093,3.448,28.356-20.501,22.884-29.257c-4.91-7.856-29.123,1.952-11.796,8.768c11.435,4.499,28.768-3.747,37.307-9.888
	c-1.601,0.5-3.303,1.691-4.851,2.407c-2.215,8.292-6.396,15.885-3.897,24.771c17.927,1.389,25.233-17.825,26.84-29.646
	c2.242,11.1-4.476,24.004,9.874,24.922c12.533,0.802,22.954-13.612,18.843-25.51c-4.529,10.456,22.473,18.627,28.167,11.815
	c6.91-8.265-14.3-19.355-16.932,0.901c-2.138,16.433,12.671,27.301,26.508,17.366c9.961-7.152,11.199-23.538,5.273-33.373
	c16.03-5.467,16.325,16.094,23.955,24.003c7.63,7.91,14.23,2.352,19.156-0.728"/>
</svg>
