<?xml version="1.0" encoding="utf-8"?>
<!-- Generator: Adobe Illustrator 12.0.0, SVG Export Plug-In . SVG Version: 6.00 Build 51448)  -->
<!DOCTYPE svg PUBLIC "-//W3C//DTD SVG 1.1//EN" "http://www.w3.org/Graphics/SVG/1.1/DTD/svg11.dtd" [
	<!ENTITY ns_svg "http://www.w3.org/2000/svg">
	<!ENTITY ns_xlink "http://www.w3.org/1999/xlink">
]>
<svg  version="1.1" id="レイヤー_1" xmlns="&ns_svg;" xmlns:xlink="&ns_xlink;" width="487.049" height="136.667"
	 viewBox="0 0 487.049 136.667" overflow="visible" enable-background="new 0 0 487.049 136.667" xml:space="preserve">
<path fill="none" stroke="#000000" d="
M0.654,75.337
c-2.052-16.574,16.803-32.163,31.629-33.485
c6.375,0.773,4.048,8.866,1.046,15.76
c-3.571,8.201-11.29,16.328-16.457,23.545
c7.254-8.728,16.148-16.823,23.772-25.233
c2.68-2.954,11.474-14.121,16.892-10.947
c10.862,6.363-7.168,25.718-10.055,30.776
c0.666-8.563,25.526-35.276,34.507-27.229
c8.742,7.837-4.43,17.75-4.044,25.495
c10.495,3.769,20.127-3.437,27.228-10.377
c4.668-4.564,7.061-10.856,11.678-15.039
c-0.932,7.926-17.522,24.64-7.795,29.708
c10.378,5.407,42.777-16.785,40.629-28.645
c-13.808,3.094-11.612,33.697-13.221,43.602
c-2.396,14.76-7.631,46.602-28.305,42.543
c-19.373-3.803-1.286-31.535,8.576-37.088
c11.615-6.539,23.159-11.046,33.526-19.953"/>
<path fill="none" stroke="#000000" d="
M232.947,59.227
c-7.606-2.649-28.817-9.939-35.902-1.727
c-5.575,6.463-2.021,28.908,6.723,31.669
c16.396,5.181,30.091-20.867,31.902-32.677
c2.592-16.906-7.484-39.97-2.224-54.528
c4.285,25.571-4.67,57.068,3.042,81.554
c8.618,27.362,38.731-18.53,26.576-31.685
c14.979,7.711,12.791,6.515,15.687,13.329
c3.319,7.82-5.397,10.813-4.849,16.677
c1.739,18.592,28.529-14.379,32.323-21.297
c-0.256,10.618-15.231,30.715-0.771,35.211
c11.094,3.447,28.356-20.502,22.885-29.257
c-4.91-7.856-29.123,1.952-11.796,8.768
c11.435,4.499,28.768-3.747,37.307-9.888
c-1.602,0.5-3.303,1.691-4.852,2.407
c-2.215,8.292-6.396,15.884-3.896,24.771
c17.927,1.389,25.233-17.825,26.84-29.646
c2.242,11.099-4.476,24.003,9.874,24.921
c12.533,0.803,22.954-13.611,18.843-25.51
c-4.528,10.456,22.474,18.627,28.167,11.815
c6.91-8.265-14.3-19.355-16.932,0.901
c-2.138,16.433,12.671,27.301,26.508,17.365
c9.961-7.152,11.199-23.538,5.273-33.373
c16.029-5.467,16.324,16.094,23.955,24.003
c7.63,7.91,14.229,2.353,19.155-0.728"/>
</svg>
