<?xml version="1.0" encoding="utf-8"?>
<!-- Generator: Adobe Illustrator 12.0.0, SVG Export Plug-In . SVG Version: 6.00 Build 51448)  -->
<!DOCTYPE svg PUBLIC "-//W3C//DTD SVG 1.1//EN" "http://www.w3.org/Graphics/SVG/1.1/DTD/svg11.dtd" [
	<!ENTITY ns_svg "http://www.w3.org/2000/svg">
	<!ENTITY ns_xlink "http://www.w3.org/1999/xlink">
]>
<svg  version="1.1" xmlns="&ns_svg;" xmlns:xlink="&ns_xlink;" width="494.875" height="387.896" viewBox="0 0 494.875 387.896"
	 overflow="visible" enable-background="new 0 0 494.875 387.896" xml:space="preserve">
<g id="レイヤー_1">
	<ellipse fill="#FFFFFF" stroke="#000000" cx="64.042" cy="287.917" rx="63.542" ry="67.188"/>
	<ellipse fill="#FFFFFF" stroke="#000000" cx="116.646" cy="357.188" rx="44.271" ry="30.208"/>
</g>
<g id="レイヤー_2">
	<ellipse fill="#FFFFFF" stroke="#000000" cx="157.271" cy="240" rx="99.479" ry="36.979"/>
	<ellipse fill="#FFFFFF" stroke="#000000" cx="274.458" cy="187.396" rx="48.958" ry="46.875"/>
	<text transform="matrix(1 0 0 1 176.5415 10.3125)" font-family="'MS-Gothic'" font-size="12">Test string 1.</text>
	<rect x="48.417" y="51.979" fill="none" width="118.75" height="130.209"/>
	<text transform="matrix(1 0 0 1 48.417 62.2915)"><tspan x="0" y="0" font-family="'MS-Gothic'" font-size="12">Test string 2. Test </tspan><tspan x="0" y="21" font-family="'MS-Gothic'" font-size="12">string 2. Test </tspan><tspan x="0" y="42" font-family="'MS-Gothic'" font-size="12">string 2. Test </tspan><tspan x="0" y="63" font-family="'MS-Gothic'" font-size="12">string 2. Test </tspan><tspan x="0" y="84" font-family="'MS-Gothic'" font-size="12">string 2. Test </tspan><tspan x="0" y="105" font-family="'MS-Gothic'" font-size="12">string 2. Test </tspan></text>
	<rect x="284.875" y="80.104" fill="none" width="208.333" height="150"/>
	<text transform="matrix(1 0 0 1 284.8755 90.4165)"><tspan x="0" y="0" font-family="'MS-Gothic'" font-size="12">Test string 3. Test string 3. Test </tspan><tspan x="0" y="21" font-family="'MS-Gothic'" font-size="12">string 3. Test string 3. Test </tspan><tspan x="0" y="42" font-family="'MS-Gothic'" font-size="12">string 3. </tspan></text>
</g>
</svg>
